<?xml version="1.0" encoding="UTF-8"?>
<svg id="Layer_1" xmlns="http://www.w3.org/2000/svg" version="1.1" viewBox="0 0 1792 2400">
  <defs>
    <style>.st0{fill:#fff;}</style>
  </defs>
  <polygon points="468.71 804.29 497.08 1820.69 413 1848 343.01 766.01 468.71 804.29"/>
  <path d="M586.99,2049.99c-6.09,1.12-3.07-1.81-4.18-4.7-28.17-73.54-49.82-149.91-75.83-224.27l-14.07-493.93-13.9-511.08,36.45,56.53,71.53,1177.45Z"/>
  <path d="M922.6,324.58c16.86-.47,38.77,2.87,54.83,8,134.13,42.79,240.55,300.69,247.65,430.35.76,13.95,4.85,53.24-13.27,55.07-24.99,2.52-15.78-40.53-16.83-56.97-7.41-116.14-101.8-346.38-214.64-395.36-57.54-24.98-125.52-8.21-158.19,46.5-82.49,138.16,60.21,344.38,16.63,492.63-5.46,18.58-28.14,13.9-29.75,0l8.07-61.74c-2.65-129-69.49-253.48-43.51-383.47,15.12-75.68,68.71-132.78,149.01-135.02Z"/>
  <path d="M782.96,681.99l12.04,52c-106.98,19.9-213.67,41.76-320.71,61.31l-113.28-33.32,421.95-79.99Z"/>
  <path d="M828.98,674.01l319.2-59.92c2.75-.3,3.33,1.27,4.46,3.26,2.05,3.6,14.67,41.26,14.25,43.51l-324.76,64.91-13.15-51.77Z"/>
  <path d="M906.99,316.01l-42.53,12.47c-25.54,10.07-58.64,37.96-79.5,56.5-87.49,77.79-122,201.52-142.96,313.04l-27.99,6.01c-3.75-.38,6.54-51.27,7.6-56.4,23.6-114.54,84.98-273.66,202.02-319.98,7.31-2.89,34.07-11.64,40.36-11.64h43Z"/>
  <polygon points="500.8 1832.18 580.97 2071.99 417.01 1856.98 500.8 1832.18"/>
  <path d="M975.01,638c14.07-87.26,46.89-200.15-22.02-271.98,14.55,1.76,45.83,14.82,54.03,26.95,4.47,6.62,9.34,26.5,11.04,34.96,13.18,65.38.06,136-11.43,200.71-2.3,5.92-25.39,5.54-31.62,9.35Z"/>
  <path d="M1418.99,656.03c-.63,3.68-4.11,3.36-6.73,4.25-39.62,13.5-87.35,17.47-127.96,29.19-8.16-1.32-38.66-34.95-49.44-38.48-6.68-2.19-18.02,4.94-21.93,2.2l-15.93-47.15,40.56-7.73,54.55,45.6,126.89,12.13Z"/>
  <path class="st0" d="M677.68,1707.31c-18.67-17.1-2.39-57.53,20.31-57.5,6.75,0,40.48,16.23,37.14-4.56-1.51-9.42-57.67,11.44-63.68-18.7-9.16-45.99,71.01-118.61,116.21-90.21,17.7,11.12,7.57,35.24-2.68,48.66-20.91,27.38-29.81-13.4-44.05,3.94-14.56,17.74,24.56,14.2,33.69,16.44,41.86,10.26,8.51,64.71-10.69,82.57-18.84,17.52-63.85,39.87-86.25,19.36Z"/>
  <path class="st0" d="M1118.44,1364.47c3.46-.72,12.1-1.45,14.69.4,7.28,5.22,2.93,67.97,1.61,79.87-1.76,15.84-6.26,58.93-23.63,64.36-23.94,7.48-28.24-16.38-39.11-31.06-8.96-.19-1.05,27.29-.88,32.92.46,15.31-11.9,29.6-26.03,34.14-13.67,4.4-13.14-7.01-14.07-18.13-2.34-28.15,2.73-109.29,21.88-130.06,36.4-39.49,34.83,49.07,43.09,49.05,3.64-2.4,2.83-5.29,3.09-8.87,1.7-23.11-13.61-65.73,19.36-72.62Z"/>
  <path class="st0" d="M969,1491.99c13.64.5,39.37-30.39,39.57-1,.06,8.34-4.04,17.74-10.88,22.72-9.54,6.94-27.88,5.83-26.69,20.29,19.11,3.89,37.51-31.29,52.91-9.9,17.09,23.72-21.7,44.94-39.58,54.25-13.61,7.08-50.39,26.11-53.37.7-2.69-22.85-1.91-52.73-1.87-76.12.03-14.39-2.42-26.02,2.47-41.36,6.86-21.48,55.59-45.6,76.97-47.14s11.08,31.42,3.35,41.47c-2.94,3.83-11.2,10.07-15.48,12.52-10.79,6.19-30.54,7.11-27.4,23.58Z"/>
  <path class="st0" d="M908.43,1470.57c10.63,10.56,2.67,55.32-12.56,57.49-12.75,1.82-15.62-17.95-33.86-2.03-13.15,11.47-19.91,40.78-9.95,55.91,7.77,11.81,20.22,7.38,29-.87,10.8-10.15,18.76-48.18,36.84-20.96,28.33,42.65-55.25,87.79-90.36,76.36-15.89-5.17-21.47-30.73-22.51-45.49-2.79-39.68,14.61-79.8,46.51-103.43,11.17-8.27,45.19-28.62,56.91-16.97Z"/>
  <path class="st0" d="M1238.54,1312.57c7-.77,21.37-2.08,24.05,6.81,2.57,8.54-3.59,45.34-12.99,48.22-8.76,2.68-22.35-5.07-27.67.35-12.31,12.53,5.58,51.28,2.88,70.87-2.47,17.9-25.87,40.43-44.44,34.78-18.68-5.69,4.37-52.46,6.1-65.12,5.93-43.47-14.65-12.22-27.58-7.51-16.2,5.89-15.94-25.57-13.01-35.08,6.29-20.43,71.77-51.02,92.66-53.32Z"/>
  <path class="st0" d="M1303.01,1322.01c4.54.82,3.18-.25,4.45-2.55,6.34-11.49,6.48-40.98,24.6-41.6,5.09-.17,10.96,2.29,12.5,7.57,6.51,22.37-30.74,57.57-25.16,81.18,2.52,10.66,9.09,9.87,4.03,26.84-6.56,21.97-48.93,38.84-41.98,6,1.09-5.16,5.96-10.53,7.06-16.91,3.82-22.19-10.5-24.65-18.32-40.72-6.96-14.3-5.08-26.39,4.81-38.81,17.72-22.24,26.31.91,28.02,19Z"/>
  <path class="st0" d="M1284.07,1048.09c-6.19,13.93-11.88,22.86-21.48,5.32-6.94-12.66-1.71-29.93,12.36-19.4,14.47-23.2,16.76-3.1,9.12,14.08Z"/>
  <path class="st0" d="M883.5,1182.51c-1.87,2.23-3.62,18.17-2.5,19.49l9-5.99c3.23,3.38-5.84,11.21-9.95,9.98-7.06-2.11.72-18.21-1.07-19.97-21.46-.22-14.26,13.46-15.98,27.02-.38,2.92-1.53,6.2-4,2.95,1.44-7.72-1.55-18.06-1.02-25,.13-1.6,3.24-16.86,3.9-19.1,3.14-10.71,17-11.09,11.09,2.1l-1.99-6c-6.86-.69-6.55,9.64-7.6,15.44-1.21,6.68,14.06-1.86,15.77-4.27,2.9-4.08.61-9.82,4.85-13.14l1,9.98,7.98-1.99c1.31,6.41-7.47,6.1-9.48,8.5Z"/>
  <path class="st0" d="M780.18,1238.22c7.76,2.87,13.13-3,17.82-8.21,3.26,4.46-8.87,12.12-13.02,13.16-24.79,6.19-4.26-53.13,15.97-47.12l.02,11.96-1.99-7.99c-13.06-2.78-26.06,32.69-18.8,38.2Z"/>
  <path class="st0" d="M850.71,1192.31c-7.2-4.38-10.52.23-14.13,6.29-10.23,17.16-6.65,37.63,9.42,13.41l6.98,5.98-2.27-25.68ZM835,1218c-1.84-4.81,4.62-23.74,8.99-23.95,8.82-.44-4.84,28.81-8.99,23.95Z"/>
  <path class="st0" d="M1029,1151.99c-.86-6.02,7.68-5.58,11.85-9.13,2.37-2.03,3.51-5.8,6.1-7.86.1-4.06-15.98-2.55-17.67-5.27-5.65-9.06,9.64-24.39,19.7-21.71v5.98c-8.63-5.13-20.42,4.66-15.78,13.82l13.9,1.07c8.34,5.64-9.4,25.82-18.1,23.1Z"/>
  <path class="st0" d="M1155,1105.99c1.57-8.15,14.72-7.71,16.02-16.96,1.23-6.66-11.71-.01-15.16-4.88-3.93-12.04,7.57-21.96,19.13-20.13l-.02,5.98c-8.75-5.26-12.38,1.2-17.97,7.04-1.46,6.55,13.86,4.49,17.81,7.13,4.12,6.16-12.98,22.1-19.81,21.82Z"/>
  <path class="st0" d="M1252.97,1044.01c-1.53,13.71,3.05,45.51-17.97,41.98-1.17-7.51,3.44-1.71,6.76-2.4,5.08-1.06,8.5-15.21,6.24-19.58l-10.99,7.99c.95-7.03-3.15-18.47,3.96-21.99l-.99,17.99c10.73-5.83,6.01-17.33,12.99-23.99Z"/>
  <path class="st0" d="M986.99,1167.99l-6.04-1.29-1.93-6.68-9.03,13.95c-9.75-6.55-.53-17.93-2.99-27.95,9.29-3.63-3.56,26.16,4.96,21.97,5.84-5.23,6.17-12.94,8.51-19.6,1.14-3.23-1.03-5.34,4.51-4.37-2.7,8.65-3.46,16.19,2.01,23.97Z"/>
  <path class="st0" d="M926.98,1189.99c-7.35,1.57-1.59-6.27-1.78-11.01-.49-12.35-11.34-12.13-14.2-22.96,7.84.34,9.5,11.79,17.89,9.9l12.08-21.9c-3.1,16.33-17.95,27.19-13.99,45.97Z"/>
  <path class="st0" d="M1192,1084.01c4.02,3.51-8.41,12.63-11,9.99-.83-4.96,1.19-12.28.01-16.69-.53-1.99-5.98-.24-4-5.27,8.72-.19,3.85-9.52,8.99-14.02l1.01,9.98,7.97-1-9.67,5.31-.3,17.69,6.99-5.99Z"/>
  <path class="st0" d="M953.29,1175.62c2.74-3.95,7.08-19.72-1.33-19.69-5.56.02-9.42,15.84-8.73,18.91.91,4.07,7.43,3.88,9.76,1.17-.3.37.7,2.78-1.25,4.13-2.62,1.83-7.53,1.88-10.74,1.87-2.6-9.15,4.31-38.44,17.17-28.18,7.45,5.94-.68,16.47-4.88,21.79Z"/>
  <path class="st0" d="M1088.98,1102.01c-13.4,3.48-15.05,18.19-13.99,30,6.58.83,14.07-.58,13.98-8l-10.01.97c4.35-8.18,12.33-11.96,10.02-22.97ZM1086.97,1106.01c.11,4.72-3.79,10.01-7.96,11.99-.11-4.72,3.8-10.01,7.96-11.99Z"/>
  <path class="st0" d="M1126.02,1116c-8.31-1.74,3.35-21.95-4.92-20.07l-.07-3.89c7.94.98,1.86-13.27,9.96-12.02l-1.99,7.98,9.98-1c-12.76,5.77-13,11.32-11.97,25l6.99-5.99c3.53,2.28-5.29,10.55-7.98,9.99Z"/>
  <path class="st0" d="M829.01,1202.99c-12.85-.22-12.91,14.9-15.77,24.36-1,3.28,1.61,5.61-4.25,4.66v-28c8.16-2.08.66,9.06,5.98,9.98-2.57-5.94,13.86-22.99,14.04-11Z"/>
  <path class="st0" d="M1116.97,1118c-7.29,3.13-3.63-22.36-9.95-15.99l-10.01,21.99v-23.99c8.07,1.83-1.78,11.8,3.96,13.98,1.99-6.65,2.78-17.52,11.99-15.98,1.69,3.96,1.16,8.82,2.15,12.54.68,2.55,5.63-.27,1.86,7.45Z"/>
  <path class="st0" d="M1070.98,1131c-28.23,30.67-15.56-23.2-5.02-20.98,2.38.5,4.19,6.53,3.02,7.97-3.66,4.54-3.5-5.15-5.96-3.97l-6.02,21.97,13.98-4.99Z"/>
  <path class="st0" d="M1208.99,1080.01c1.66-2.92,3.93-17.41-2.97-16-6.12,4.72-7.46,12.74-7.02,19.98,1.34,1.42,9.06-2.34,9.99-3.98-1.68,2.76-1.18,7.78-7,8.09-8.09.07-5.03-15.46-2.53-20.63,7.37-15.27,20.55-5.59,9.53,12.54Z"/>
  <path class="st0" d="M1010.95,1135.01c-13.1,4.78-11.95,14.11-14.02,25.99-.58,3.36,1.23,3.39-3.94,3.01v-28l3.98,11.98c.76-5.08,6.87-20.15,13.98-12.98Z"/>
  <path class="st0" d="M1225.39,1061.41l-6.38,20.58v-25.97l3.96,7.97c-.21-.83.14-2.24.84-3.82.28-.63.62-1.29,1-1.95.38-.66.8-1.33,1.25-1.97.67-.96,1.4-1.86,2.15-2.59,1.73-1.75,3.53-2.68,4.77-1.64,3.82,3.22-8.35,6.43-7.59,9.39Z"/>
  <path d="M835,1218c-1.84-4.8,4.62-23.73,8.99-23.95,8.82-.44-4.84,28.81-8.99,23.95Z"/>
  <path d="M1079.01,1118c-.11-4.72,3.8-10.01,7.96-12,.11,4.72-3.8,10.01-7.96,12Z"/>
  <path d="M1444.97,724.98c1.25-20.77.19-42.7,4.02-62.96l-222.01,49.99c1.16,14.72,5.09,30.37,5.99,45.01.86,13.92,1.89,42.95-.11,55.86-3.78,24.44-38.96,29.99-46.92,5.19-1.1-19.69,2.33-39.25,1.03-59.04-.44-6.69-2.51-26.16-4.33-31.66-.85-2.55-2.02-3.24-4.63-3.43l-325.01,74.08,1.96,46.97c-3.09,21.93-3.62,45.91-8.45,67.54-8.63,38.66-62.05,21.66-49.09-13.11,1.8-4.82,5.81-8.19,7.13-12.86,6.27-22.05.3-53.38,2.43-76.56l-279.79,64.2,69.81,1209.79,788.89-470.09c5.43-10.81,2.3-23.27,3.12-34.87,20.1-284.42,38.85-569.43,55.96-854.05ZM774.62,1605.38c41.86,10.25,8.51,64.71-10.69,82.57-18.83,17.52-63.85,39.87-86.25,19.36-18.66-17.1-2.38-57.53,20.31-57.5,6.75,0,40.48,16.23,37.15-4.57-1.52-9.42-57.68,11.45-63.68-18.69-9.17-45.99,71-118.61,116.2-90.22,17.7,11.12,7.57,35.25-2.68,48.67-20.91,27.37-29.81-13.4-44.05,3.94-14.56,17.74,24.56,14.2,33.69,16.44ZM827.53,1636.47c-15.89-5.17-21.47-30.74-22.51-45.5-2.79-39.68,14.61-79.8,46.51-103.43,11.16-8.27,45.19-28.62,56.9-16.97,10.63,10.56,2.67,55.32-12.55,57.49-12.76,1.81-15.62-17.95-33.87-2.03-13.15,11.47-19.91,40.78-9.95,55.91,7.77,11.8,20.22,7.37,28.99-.87,10.81-10.15,18.76-48.18,36.84-20.97,28.34,42.66-55.25,87.79-90.36,76.37ZM984.33,1578.34c-13.61,7.09-50.39,26.11-53.38.7-2.68-22.84-1.91-52.72-1.87-76.11.03-14.39-2.42-26.02,2.48-41.36,6.86-21.48,55.59-45.6,76.97-47.14,20.39-1.48,11.08,31.42,3.35,41.47-2.94,3.82-11.2,10.07-15.47,12.52-10.79,6.19-30.54,7.11-27.41,23.57,13.64.5,39.37-30.38,39.58-1,.06,8.35-4.04,17.74-10.89,22.72-9.53,6.94-27.88,5.83-26.69,20.28,19.11,3.89,37.51-31.29,52.91-9.9,17.08,23.72-21.7,44.94-39.58,54.25ZM1134.74,1444.75c-1.76,15.84-6.26,58.93-23.63,64.36-23.94,7.47-28.24-16.38-39.12-31.07-8.96-.19-1.05,27.3-.88,32.93.47,15.3-11.9,29.59-26.02,34.14-13.67,4.4-13.15-7.01-14.07-18.13-2.35-28.16,2.73-109.29,21.88-130.06,36.4-39.49,34.83,49.06,43.09,49.04,3.64-2.39,2.83-5.29,3.09-8.87,1.7-23.11-13.6-65.73,19.36-72.62,3.46-.72,12.11-1.45,14.69.41,7.27,5.22,2.93,67.97,1.61,79.87ZM1249.61,1367.61c-8.76,2.68-22.35-5.07-27.68.35-12.31,12.53,5.59,51.28,2.88,70.87-2.47,17.91-25.86,40.44-44.44,34.78-18.68-5.69,4.38-52.46,6.1-65.12,5.93-43.47-14.65-12.22-27.58-7.52-16.2,5.9-15.94-25.57-13.01-35.07,6.3-20.44,71.77-51.02,92.66-53.33,7-.77,21.37-2.08,24.06,6.82,2.57,8.53-3.59,45.34-12.99,48.22ZM1319.41,1366.6c2.51,10.66,9.09,9.88,4.02,26.85-6.56,21.97-48.93,38.83-41.98,5.99,1.09-5.15,5.95-10.53,7.05-16.9,3.83-22.2-10.5-24.65-18.32-40.73-6.96-14.29-5.08-26.38,4.81-38.8,17.72-22.24,26.31.91,28.02,19,4.54.82,3.18-.25,4.45-2.56,6.35-11.48,6.48-40.98,24.6-41.6,5.09-.17,10.96,2.29,12.5,7.57,6.52,22.38-30.74,57.58-25.15,81.18Z"/>
  <path d="M1206.02,1064.01c-6.12,4.72-7.46,12.73-7.02,19.98,1.34,1.42,9.06-2.35,9.99-3.99,1.66-2.91,3.93-17.41-2.97-15.99Z"/>
  <path d="M953.29,1175.62s-.02.03-.04.05c-.09.12-.17.23-.26.34-2.33,2.71-8.85,2.9-9.76-1.17-.69-3.07,3.17-18.89,8.73-18.91,8.41-.03,4.07,15.74,1.33,19.69Z"/>
  <g>
    <g>
      <path class="st0" d="M716.68,1163.46c.31,1,0,2.44-.91,4.32-.22.47-.51,1.01-.86,1.61-.35.6-.73,1.21-1.14,1.84-.41.63-.82,1.25-1.23,1.87-.42.62-.81,1.19-1.18,1.71-1.18,1.67-2.45,3.29-3.81,4.87s-2.78,3.04-4.25,4.37c-1.47,1.33-2.99,2.5-4.56,3.49-1.57.99-3.15,1.74-4.74,2.23-1.74.53-3.32.75-4.76.65-1.44-.1-2.72-.48-3.85-1.14-1.13-.66-2.1-1.57-2.91-2.73-.82-1.16-1.47-2.54-1.96-4.13-.46-1.44-.77-2.96-.91-4.55s-.16-3.2-.05-4.82c.12-1.62.36-3.22.74-4.81.37-1.58.85-3.09,1.43-4.52.35-.86.77-1.76,1.25-2.7.49-.93,1.02-1.86,1.59-2.77.57-.92,1.17-1.79,1.79-2.62.62-.83,1.25-1.6,1.88-2.28.41-.44.94-.98,1.59-1.6s1.35-1.24,2.1-1.84c.75-.6,1.5-1.15,2.27-1.64.76-.49,1.45-.83,2.06-1.02.98-.3,1.78-.47,2.41-.52.63-.04,1.22.03,1.77.21.26.1.58.27.96.51.38.24.76.52,1.13.84.37.32.7.65.99.99.29.34.48.65.56.92s.08.72,0,1.35c-.09.63-.21,1.28-.37,1.97-.16.69-.33,1.34-.51,1.95s-.33,1.04-.45,1.29c-.44.93-1.03,1.51-1.79,1.74-.64.2-1.21.16-1.69-.13-.48-.28-.82-.72-1-1.32-.06-.21-.04-.57.06-1.09.1-.52.35-1.14.74-1.88s.67-1.39.83-1.96c.17-.57.27-.95.3-1.13-.39-.13-.84-.18-1.34-.17-.51.02-.96.08-1.36.21-.58.18-1.25.53-2.02,1.06-.77.53-1.54,1.14-2.3,1.83-.76.69-1.49,1.42-2.18,2.19s-1.25,1.47-1.68,2.12c-1.23,1.88-2.31,3.82-3.22,5.82-.91,2.01-1.53,4.11-1.86,6.3-.13.9-.22,1.83-.29,2.79-.06.96-.08,1.92-.05,2.88.03.96.11,1.9.25,2.81.13.92.32,1.78.57,2.58.29.95.67,1.8,1.14,2.55s1.05,1.35,1.73,1.79c.68.44,1.48.71,2.4.79.92.09,1.97-.05,3.16-.42,1.29-.4,2.55-.98,3.79-1.75,1.24-.77,2.44-1.66,3.6-2.68,1.16-1.02,2.27-2.12,3.35-3.3,1.08-1.19,2.09-2.39,3.04-3.62.95-1.23,1.84-2.43,2.67-3.62.83-1.19,1.58-2.3,2.25-3.33.28-.42.56-.88.86-1.37.3-.5.59-.99.88-1.48.29-.49.56-.98.83-1.47.26-.49.49-.93.69-1.32.84.15,1.36.57,1.58,1.26Z"/>
      <path class="st0" d="M737.58,1152.74c.03.1.06.24.11.43.04.19.06.39.05.59,0,.2-.03.39-.08.56-.04.17-.14.28-.28.32-.1.03-.26.08-.49.14-.23.06-.47.12-.72.18-.25.06-.49.12-.72.18-.23.06-.39.11-.49.14-3.01,1.14-5.22,3.05-6.63,5.74-1.39,2.63-2.3,5.85-2.73,9.66-.06.78-.11,1.57-.15,2.39-.04.82-.05,1.68-.04,2.57,0,.49.04.92.09,1.28.05.36.07.76.06,1.18,0,.14-.09.31-.29.5s-.44.39-.71.57c-.27.19-.53.36-.78.5-.25.15-.43.24-.52.27-1.09.41-2.07-.55-2.94-2.87-.25-.63-.45-1.2-.6-1.73-.15-.52-.29-1.04-.41-1.54-.12-.5-.23-1.03-.34-1.58-.11-.56-.24-1.18-.38-1.88-.18-.86-.38-1.85-.6-2.98-.22-1.13-.43-2.27-.63-3.42s-.37-2.26-.52-3.31c-.15-1.05-.24-1.94-.26-2.65-.06-.81.02-1.45.22-1.91.2-.47.6-.81,1.2-1.03.16-.05.35-.06.56-.03.21.03.42.1.61.19.2.1.37.21.53.34.15.13.26.25.31.38.14.4.27.84.38,1.32.11.48.21.99.28,1.52.08.53.14,1.07.18,1.62.05.55.08,1.07.12,1.57.06.99.13,1.82.21,2.51s.17,1.35.28,1.99c.11.64.23,1.32.36,2.04.13.72.3,1.62.49,2.69.08-.69.16-1.29.23-1.79.07-.5.13-.93.19-1.31.06-.38.12-.72.17-1.02.06-.3.12-.61.2-.95.07-.33.16-.69.24-1.09s.2-.88.34-1.45c.55-2.21,1.29-4.11,2.21-5.68.92-1.58,1.9-2.81,2.93-3.69,1.15-1.06,2.15-1.75,3.01-2.06.41-.14.92-.27,1.52-.39.6-.11,1.19-.16,1.77-.15.58.01,1.11.1,1.57.27.46.17.76.45.88.85Z"/>
      <path class="st0" d="M776.37,1144.12c.06.19.11.43.14.71s.05.57.04.87c0,.3-.02.59-.05.87-.03.28-.08.51-.14.69-.06.16-.14.37-.26.65-.12.27-.25.57-.4.9-.15.33-.31.67-.49,1.03-.18.36-.37.72-.58,1.06-.71,1.22-1.42,2.41-2.11,3.57-.69,1.15-1.44,2.22-2.25,3.19-.81.97-1.7,1.82-2.68,2.56-.98.73-2.11,1.29-3.41,1.67-.59.18-1.23.26-1.9.23s-1.33-.17-1.99-.4c-.65-.24-1.26-.58-1.82-1.02-.56-.44-1.02-.98-1.39-1.6-.32.63-.65,1.28-1.01,1.96-.35.68-.73,1.37-1.12,2.07s-.81,1.39-1.25,2.07c-.44.68-.91,1.33-1.41,1.94-.28.33-.63.71-1.04,1.11-.41.41-.85.8-1.32,1.19-.47.38-.96.73-1.45,1.03-.5.3-.96.52-1.4.65-.66.2-1.29.17-1.89-.09-.6-.26-1.15-.64-1.65-1.14-.5-.5-.93-1.06-1.29-1.69-.36-.63-.62-1.21-.79-1.74-.33-1.06-.51-2.19-.54-3.4-.04-1.2.03-2.41.19-3.61.17-1.2.4-2.37.71-3.51.31-1.13.64-2.16.99-3.08.37-.96.86-1.95,1.46-2.97.6-1.02,1.26-1.97,1.97-2.85.71-.88,1.45-1.64,2.2-2.28.75-.64,1.47-1.06,2.14-1.27l1.07-.33c.38-.12.76-.21,1.14-.29.38-.07.76-.12,1.14-.14.38-.02.74.01,1.09.1.17.05.4.18.68.4.28.21.55.46.82.75s.52.58.73.88c.22.3.35.55.41.74.16.53.26,1.28.29,2.23.08,1.19.16,2.27.22,3.24.06.98.24,1.94.54,2.91.17.55.43,1.08.78,1.59.35.52.77.96,1.24,1.32.47.37.99.62,1.56.77.57.15,1.15.14,1.74-.05.98-.3,1.92-.82,2.82-1.54.9-.73,1.77-1.61,2.6-2.65.83-1.04,1.63-2.19,2.38-3.45.75-1.26,1.48-2.58,2.16-3.95.05-.12.14-.33.27-.62.13-.29.27-.59.41-.89.15-.3.29-.57.45-.82.15-.25.28-.39.37-.42.34-.1.61.17.81.83ZM754.3,1148.73c-.08-.27-.2-.61-.36-1-.16-.39-.36-.69-.62-.89-.26-.2-.51-.26-.77-.17-.25.09-.51.17-.77.25-.56.17-1.08.43-1.55.77-.47.34-.9.74-1.3,1.21-.4.47-.77.98-1.1,1.53s-.65,1.12-.94,1.7c-.26.48-.5,1.06-.75,1.73-.24.67-.46,1.4-.65,2.17-.19.77-.36,1.57-.51,2.4-.15.83-.25,1.64-.31,2.42-.06.78-.07,1.53-.03,2.23.04.7.14,1.32.3,1.85.05.16.14.37.26.62.12.25.27.49.43.71.16.22.35.4.56.53.21.13.42.16.65.09.74-.23,1.59-.75,2.56-1.55,1.31-1.11,2.41-2.41,3.3-3.91.89-1.5,1.54-3.11,1.95-4.84.56-2.65.44-5.26-.36-7.84Z"/>
      <path class="st0" d="M816.42,1126.5c.18.59.16,1.1-.06,1.51-.23.41-.51.8-.85,1.17-.46.4-.98.8-1.57,1.2s-1.21.77-1.84,1.13c-.64.36-1.28.7-1.94,1.02-.66.32-1.29.61-1.9.86-.66.27-1.35.56-2.09.85-.74.3-1.45.59-2.13.88-.69.29-1.31.58-1.89.86s-1.02.55-1.35.81c.11,1.57.18,3.07.22,4.51.03,1.44.12,2.86.27,4.26.03.33.09.81.17,1.45.08.64.18,1.31.29,2.01.11.7.22,1.35.33,1.96.11.61.2,1.04.28,1.3.2.66.46,1.12.77,1.39.31.26.62.46.93.58.31.12.6.24.86.35.26.11.45.35.56.7.07.22.03.48-.12.75-.15.28-.36.54-.61.8-.26.25-.54.48-.86.67-.32.19-.61.33-.86.41-.47.14-.92.14-1.37,0-.45-.14-.87-.38-1.25-.71-.38-.33-.73-.74-1.04-1.22s-.55-1.01-.72-1.57c-.23-.74-.41-1.55-.54-2.43-.13-.88-.24-1.8-.32-2.74-.08-.94-.15-1.91-.22-2.9-.07-.99-.15-1.97-.24-2.95-.04-.41-.08-.83-.11-1.27-.04-.44-.08-.85-.12-1.23l-.1-.96c-.03-.26-.05-.41-.06-.46-.08-.26-.23-.43-.46-.51-.23-.08-.47-.08-.73,0-.14.04-.43.15-.85.32-.42.17-.9.35-1.44.55-.54.2-1.07.41-1.61.63s-1,.4-1.38.53c-.68.25-1.44.51-2.29.8-.84.29-1.69.57-2.55.86-.85.29-1.68.57-2.49.83-.81.27-1.52.49-2.13.68.11.64.23,1.34.36,2.11.13.77.26,1.55.39,2.33.13.79.25,1.56.37,2.3.12.75.23,1.4.33,1.97.21,1.15.44,2.4.67,3.77.24,1.36.5,2.97.79,4.84.26,1.98.35,3.64.27,4.99-.11,1.92-.55,3.68-1.33,5.29-.76,1.66-1.89,2.72-3.4,3.19-.47.14-1.05.15-1.74,0-.67-.13-1.08-.43-1.23-.91-.06-.21-.1-.47-.12-.78s0-.62.05-.92c.05-.3.13-.58.24-.81.11-.24.27-.39.48-.45.26-.08.64-.14,1.15-.2s.9-.12,1.15-.2c.31-.36.55-.77.72-1.22.17-.46.28-.96.34-1.5.06-.55.08-1.12.06-1.73-.02-.61-.07-1.24-.14-1.88-.13-1.23-.27-2.39-.4-3.49-.14-1.1-.28-2.16-.44-3.18-.15-1.02-.32-2.01-.49-2.98-.18-.97-.36-1.94-.56-2.92-.09-.52-.23-1.21-.41-2.09-.16-.87-.34-1.62-.54-2.26-.04-.25-.18-.45-.42-.6-.24-.15-.5-.28-.77-.41s-.53-.26-.76-.41c-.23-.15-.37-.35-.41-.6-.09-.29.13-1.11.66-2.47.55-1.35.78-2.36.68-3.03-.04-.34-.09-.78-.18-1.3s-.17-1.15-.27-1.86c-.21-1.41-.36-2.58-.45-3.51-.08-.94-.1-1.94-.05-2.99.05-1.05.17-2.06.39-3.02.35-1.43.95-2.83,1.8-4.2s1.85-2.23,3.03-2.6,2.38-.26,3.51.34c1.14.56,1.9,1.46,2.28,2.7.48,1.56.4,3.4-.23,5.51-.36,1.24-.83,1.94-1.4,2.12l-.1.03c-.06-1.21-.28-2.45-.67-3.7-.28-.9-.69-1.78-1.23-2.63-.54-.89-1.1-1.25-1.68-1.07-.69.21-1.21.79-1.56,1.72-.35.92-.59,1.88-.72,2.89-.17,1.39-.17,3.18-.01,5.36.04.53.08,1.01.12,1.43.04.42.09.81.14,1.17.05.36.11.72.17,1.07.06.35.14.72.23,1.12l.32,1.04c.1.32.37.49.8.51.44.02,1.07-.07,1.91-.26,1.28-.29,2.58-.63,3.89-1.03,1.31-.4,2.49-.77,3.54-1.13.91-.35,1.79-.7,2.62-1.05.83-.35,1.47-.64,1.91-.88.09-.05.23-.12.42-.23.19-.11.37-.25.55-.43.18-.18.34-.39.46-.64.12-.25.18-.54.17-.87-.04-.53-.08-1.16-.13-1.87-.05-.72-.09-1.45-.14-2.2s-.09-1.48-.13-2.18c-.04-.7-.08-1.3-.11-1.8,0-.49-.02-1.01-.07-1.56-.05-.55-.12-1.09-.19-1.63-.07-.54-.12-1.07-.16-1.59-.04-.52-.03-1,.03-1.46.1-.94.54-1.54,1.33-1.78,1.19-.37,1.99.11,2.39,1.43.25.82.37,1.81.34,2.98-.02,2.68.03,4.87.15,6.57.12,1.7.26,2.82.43,3.37.18.59.57.8,1.17.62.72-.22,1.4-.44,2.03-.66.63-.22,1.26-.46,1.89-.71.63-.26,1.3-.54,2-.84.7-.3,1.48-.64,2.35-1.02.62-.28,1.2-.56,1.76-.86.55-.29,1.06-.57,1.53-.83.47-.26.88-.49,1.23-.71s.66-.38.9-.49c.17-.07.34-.15.5-.23.16-.08.3-.13.43-.15s.24.02.35.1c.1.08.19.24.27.48Z"/>
      <path class="st0" d="M854.11,1093.82c.02.08.05.22.08.42.03.2.05.39.07.56.08.73-.11,1.75-.57,3.07-.47,1.31-1.11,2.98-1.93,4.99-.26.64-.57,1.42-.93,2.32-.36.9-.78,1.96-1.26,3.16-.23.58-.44,1.14-.64,1.69-.2.55-.39,1.08-.57,1.59-.16.51-.32,1.03-.49,1.58-.17.54-.33,1.12-.49,1.74,0,.09-.07.34-.18.75-.11.41-.25,1-.42,1.75-.35,1.44-.68,2.55-1.01,3.32.14.57.29,1.17.46,1.79.16.62.33,1.27.51,1.95.18.69.34,1.32.49,1.89.15.58.29,1.11.4,1.61.24.96.49,1.94.75,2.94.25.98.56,2.26.94,3.83.64,2.53.97,3.96,1,4.28.02.35-.24.81-.78,1.4-.52.6-.96.96-1.33,1.07-.47.14-1.03,0-1.69-.43-.64-.42-1.03-.86-1.17-1.33-.29-.93-.62-2.53-1-4.79-.36-2.25-.67-4.02-.92-5.31-.67-3.38-1.18-5.63-1.52-6.74-.22-.72-.58-1.33-1.07-1.84-.9-.18-1.86-.51-2.88-.99s-2.02-1.02-2.99-1.61c-.5-.3-1.05-.65-1.65-1.04-.6-.39-1.28-.82-2.03-1.32-.73-.5-1.29-.87-1.68-1.13-.39-.26-.6-.4-.64-.42-.27-.18-.61-.39-1.03-.63s-.9-.51-1.45-.82c-.56-.32-1.04-.6-1.46-.84s-.77-.44-1.07-.59c-.61-.32-.96-.64-1.06-.97-.09-.3.22-.82.95-1.56.73-.75,1.26-1.18,1.59-1.28.35-.11.77-.1,1.25.04.48.13,1.04.38,1.69.73.65.36,1.39.82,2.25,1.38.85.57,1.83,1.23,2.95,1.99,1.1.77,2.09,1.44,2.97,2,.88.57,1.66,1.02,2.35,1.36s1.29.57,1.81.68c.52.11.98.11,1.38-.02.02,0,.19-.37.54-1.09.17-.35.3-.63.39-.83.09-.2.14-.32.16-.37.42-1.03.78-1.91,1.08-2.66.3-.74.55-1.37.74-1.87.19-.52.43-1.14.71-1.88.28-.74.61-1.6.97-2.6.36-1.01.69-1.92,1-2.75.31-.83.58-1.57.81-2.24.25-.67.49-1.37.73-2.09.24-.72.48-1.46.74-2.22.2-.71.4-1.25.6-1.62s.52-.62.99-.77c.51-.16,1.04-.19,1.58-.09.54.08.88.36,1.02.82Z"/>
      <path class="st0" d="M891.07,1104.63c.08.27.11.57.08.89-.03.32-.11.64-.22.96s-.25.64-.41.94c-.16.3-.34.57-.54.79-.45.54-1.15,1.12-2.1,1.72-.95.6-2.19,1.14-3.72,1.61-1.22.38-2.5.6-3.83.67s-2.68-.08-4.05-.46c.54.45.95.91,1.21,1.4.26.48.5,1.08.72,1.78.39,1.27.49,2.72.28,4.35-.18,1.64-.58,3.23-1.19,4.78-.61,1.54-1.35,2.9-2.21,4.06-.48.66-1.05,1.28-1.69,1.85-.64.58-1.34,1.1-2.09,1.57s-1.56.89-2.41,1.27c-.85.38-1.73.7-2.63.98-.63.19-1.3.18-2.02-.04-.72-.22-1.4-.55-2.04-.98-.64-.43-1.21-.94-1.69-1.51-.48-.57-.81-1.12-.97-1.65-.4-1.3-.61-2.6-.64-3.91-.02-1.3.09-2.6.33-3.9.24-1.3.58-2.6,1.03-3.91.44-1.31.93-2.62,1.47-3.95.3-.74.67-1.5,1.11-2.26.44-.76.93-1.47,1.47-2.13.54-.66,1.11-1.23,1.71-1.73.6-.49,1.22-.84,1.85-1.03.51-.16.98-.22,1.39-.19.41.03.83.13,1.24.29.41.16.85.39,1.32.69.47.3,1.01.62,1.61.98.19.1.65.19,1.39.27.74.08,1.59.12,2.57.11s1.98-.07,3.02-.17c1.04-.1,1.96-.28,2.77-.52s1.53-.5,2.19-.77c.66-.26,1.28-.56,1.88-.88.6-.32,1.17-.7,1.73-1.11.56-.42,1.15-.9,1.77-1.44.14.22.24.42.29.6ZM874.84,1115.96c-.12-.45-.31-.96-.57-1.5-.26-.55-.56-1.04-.92-1.49s-.75-.78-1.18-1c-.43-.22-.87-.22-1.34-.01-.83-.06-1.53-.18-2.11-.35-.58-.17-1-.22-1.26-.14-.19.06-.38.18-.57.37-.19.19-.37.43-.55.71-.18.28-.35.6-.51.96-.16.36-.32.73-.46,1.11-.29.78-.56,1.48-.81,2.12-.25.64-.48,1.27-.69,1.89s-.39,1.26-.56,1.91-.31,1.39-.44,2.18c-.06.33-.08.72-.07,1.16.01.44.04.88.09,1.33.05.45.12.9.21,1.33.09.44.19.83.29,1.16.06.21.21.44.45.69.24.25.51.48.83.69.32.21.66.36,1.01.47.36.1.68.11.97.02.82-.25,1.51-.5,2.06-.75s1.05-.54,1.48-.88c.43-.34.85-.74,1.25-1.22.4-.47.85-1.07,1.35-1.79.25-.34.48-.72.69-1.14.21-.42.42-.85.61-1.31.19-.46.37-.91.53-1.38.16-.46.3-.91.43-1.36.09-.29.13-.63.13-1.02,0-.39-.02-.77-.06-1.14-.04-.37-.1-.71-.16-1.01s-.12-.51-.16-.64Z"/>
      <path class="st0" d="M928.72,1093.79c.19.61.25,1.35.18,2.23-.07.87-.26,1.73-.58,2.57-.41,1.08-.9,2.17-1.48,3.28-.58,1.11-1.21,2.2-1.89,3.26-.68,1.06-1.39,2.07-2.13,3.03-.74.96-1.48,1.82-2.23,2.59-.74.77-1.46,1.41-2.16,1.93-.7.52-1.35.88-1.94,1.06-.76.23-1.45.31-2.1.22-.64-.08-1.24-.28-1.78-.6-.55-.32-1.05-.73-1.5-1.24-.46-.51-.89-1.06-1.29-1.66-.4-.6-.78-1.23-1.12-1.88-.34-.66-.67-1.3-.99-1.93-.21.74-.46,1.56-.73,2.48-.27.92-.56,1.86-.87,2.82-.31.96-.64,1.89-.99,2.8-.35.91-.68,1.71-1.01,2.41-.38.77-.82,1.53-1.32,2.28-.5.75-1.06,1.45-1.68,2.09s-1.3,1.21-2.05,1.71c-.74.5-1.55.89-2.42,1.15-1.27.39-2.43.18-3.47-.65-1.03-.83-1.75-1.92-2.18-3.29-.2-.64-.35-1.33-.46-2.06-.11-.73-.2-1.46-.28-2.2-.08-.73-.15-1.45-.23-2.16-.08-.71-.18-1.36-.32-1.97-.06-.25-.14-.55-.24-.92-.1-.36-.23-.79-.38-1.27l-.37-1.19c-.11-.36-.21-.71-.3-1.04-.09-.33-.16-.67-.23-1-.07-.33-.12-.68-.17-1.06-.07-.58,0-1.12.21-1.62.21-.51.68-.87,1.41-1.09,1.48-.46,2.53.34,3.16,2.38.11.35.19.75.25,1.2.06.45.11.92.16,1.4s.09.99.13,1.49c.04.51.09,1,.15,1.47.03.68.06,1.35.1,2.03.03.68.07,1.33.12,1.97.05.64.12,1.24.21,1.82.09.58.21,1.1.35,1.57.07.24.19.5.35.78.16.28.34.53.55.75.21.23.45.39.72.5.27.11.55.12.84.03.85-.26,1.64-.76,2.36-1.51.72-.74,1.37-1.58,1.95-2.53s1.1-1.92,1.55-2.93.84-1.93,1.17-2.75c.31-.82.58-1.75.81-2.81.23-1.06.42-2.14.58-3.25.16-1.11.3-2.22.42-3.31.12-1.09.23-2.08.33-2.95.21-2,.61-3.09,1.21-3.28.43-.13.74-.15.93-.06.19.09.34.35.47.76.1.32.2.77.29,1.34.1.57.19,1.17.27,1.79.09.62.18,1.22.27,1.79.1.57.19,1.01.29,1.31.08.27.19.61.32,1,.13.39.27.79.41,1.21.14.41.3.82.47,1.22.17.4.33.73.48,1,.17.32.41.7.72,1.14.31.44.66.86,1.06,1.25.39.39.82.69,1.27.91.45.22.92.26,1.38.12.87-.27,1.77-.83,2.72-1.68.94-.85,1.87-1.86,2.77-3.03.91-1.17,1.78-2.43,2.61-3.79.83-1.36,1.59-2.68,2.26-3.96.27-.5.54-1.01.81-1.52.27-.51.54-.94.79-1.3.25-.36.46-.61.64-.75.18-.14.3-.11.36.1Z"/>
      <path class="st0" d="M947.04,1088.2c.03.1.06.24.11.43.04.19.06.39.05.59,0,.2-.03.39-.08.56-.04.17-.14.28-.28.32-.1.03-.26.08-.49.14-.23.06-.47.12-.72.18-.25.06-.49.12-.72.18-.23.06-.39.11-.49.14-3.01,1.14-5.22,3.05-6.63,5.74-1.39,2.63-2.3,5.85-2.73,9.66-.06.78-.11,1.57-.15,2.39-.04.82-.05,1.68-.04,2.57,0,.49.04.92.09,1.28.05.36.07.76.06,1.18,0,.14-.09.31-.29.5s-.44.39-.71.57c-.27.19-.53.36-.78.5-.25.15-.43.24-.52.27-1.09.41-2.07-.55-2.94-2.87-.25-.63-.45-1.2-.6-1.73-.15-.52-.29-1.04-.41-1.54-.12-.5-.23-1.03-.34-1.58-.11-.56-.24-1.18-.38-1.88-.18-.86-.38-1.85-.6-2.98-.22-1.13-.43-2.27-.63-3.42s-.37-2.26-.52-3.31c-.15-1.05-.24-1.94-.26-2.65-.06-.81.02-1.45.22-1.91.2-.47.6-.81,1.2-1.03.16-.05.35-.06.56-.03.21.03.42.1.61.19.2.1.37.21.53.34.15.13.26.25.31.38.14.4.27.84.38,1.32.11.48.21.99.28,1.52.08.53.14,1.07.18,1.62.05.55.08,1.07.12,1.57.06.99.13,1.82.21,2.51s.17,1.35.28,1.99c.11.64.23,1.32.36,2.04.13.72.3,1.62.49,2.69.08-.69.16-1.29.23-1.79.07-.5.13-.93.19-1.31.06-.38.12-.72.17-1.02.06-.3.12-.61.2-.95.07-.33.16-.69.24-1.09s.2-.88.34-1.45c.55-2.21,1.29-4.11,2.21-5.68.92-1.58,1.9-2.81,2.93-3.69,1.15-1.06,2.15-1.75,3.01-2.06.41-.14.92-.27,1.52-.39.6-.11,1.19-.16,1.77-.15.58.01,1.11.1,1.57.27.46.17.76.45.88.85Z"/>
      <path class="st0" d="M990.1,1062.7c.06.21.12.47.17.79.05.32.07.65.08.99,0,.34,0,.67-.04.99-.03.32-.1.58-.19.79-.24.59-.86,1.03-1.86,1.34-.34-1.09-.77-1.95-1.3-2.58-.25-.29-.6-.5-1.05-.61-.45-.12-.93-.18-1.45-.2-.52-.02-1.02.01-1.52.09-.5.07-.91.16-1.25.27-.77.24-1.51.48-2.22.74-.71.25-1.38.54-2.03.85-.65.32-1.3.67-1.94,1.07-.64.4-1.29.87-1.96,1.41-.5.42-1.02.89-1.54,1.41-.53.52-.99,1.07-1.39,1.66-.4.58-.72,1.18-.95,1.8-.23.62-.3,1.24-.22,1.86.11.46.4.93.89,1.42.48.48,1.07.92,1.76,1.3.69.39,1.45.7,2.27.94.82.24,1.63.35,2.44.33.14,0,.47.02.99.04.52.02,1.07.03,1.66.04.59.01,1.14.02,1.65.03.51.01.83.01.97,0,3.92-.19,6.96.09,9.11.82s3.52,2.03,4.08,3.88c.18.59.23,1.23.15,1.89-.08.67-.24,1.33-.48,2-.24.66-.52,1.29-.84,1.88-.33.59-.65,1.11-.95,1.53-.35.51-.77,1.06-1.24,1.64-.47.58-.99,1.15-1.55,1.73-.56.58-1.15,1.14-1.78,1.68s-1.27,1.05-1.93,1.52c-.65.46-1.34.92-2.07,1.37-.73.45-1.47.86-2.2,1.25-.74.38-1.45.73-2.13,1.04-.69.31-1.31.55-1.88.72-.42.13-.98.24-1.68.32-.7.09-1.41.12-2.12.1-.71-.02-1.34-.11-1.89-.26-.55-.16-.88-.4-.98-.74-.06-.21-.12-.47-.15-.8-.04-.32-.05-.64-.03-.97.02-.32.06-.6.14-.85.07-.24.2-.39.38-.45.32-.1.67-.15,1.05-.15.38,0,.82-.01,1.34-.03.51-.02,1.11-.07,1.8-.17.68-.1,1.49-.29,2.42-.58s1.93-.71,2.91-1.23c.97-.52,1.91-1.1,2.8-1.75.89-.64,1.73-1.32,2.5-2.04.77-.71,1.45-1.41,2.03-2.1.27-.33.56-.7.88-1.13.32-.42.6-.87.84-1.33s.43-.93.54-1.41c.12-.48.11-.93-.02-1.37-.19-.61-.82-1.06-1.89-1.34-1.05-.27-2.09-.42-3.11-.44-1.02-.02-1.92,0-2.69.04-.95.05-2.04.06-3.25.03-1.22-.03-2.56-.1-4.04-.21-2.44-.16-4.67-.81-6.67-1.96-2.01-1.14-3.36-2.85-4.06-5.11-.36-1.05-.35-2.17.03-3.36.38-1.19,1.02-2.38,1.92-3.57.9-1.19,1.99-2.34,3.28-3.45,1.29-1.11,2.66-2.09,4.12-2.95.3-.16.67-.36,1.1-.58.43-.22.89-.44,1.36-.64.47-.21.93-.4,1.38-.58.45-.18.83-.32,1.15-.42.39-.12.88-.24,1.48-.37.6-.12,1.23-.23,1.88-.33.65-.09,1.27-.15,1.87-.18s1.1,0,1.49.09c.95.18,1.76.51,2.41.97.65.47,1.07.99,1.25,1.57Z"/>
      <path class="st0" d="M1030.11,1065.74c.18.58.13,1.17-.14,1.76-.1.21-.25.49-.48.85-.22.36-.42.7-.59,1.01l-1.53,2.9c-.29.55-.56,1.04-.82,1.48-.26.44-.49.82-.69,1.15-.35.53-.76,1.16-1.25,1.9-.48.74-1.04,1.59-1.68,2.56-1.25,1.9-2.44,3.51-3.58,4.83-1.15,1.3-2.45,2.47-3.9,3.49-1.45,1.02-3.08,1.81-4.88,2.36-1.1.37-2.15.49-3.16.34-1.01-.15-1.92-.49-2.74-1.02-.82-.53-1.54-1.23-2.15-2.1s-1.07-1.84-1.39-2.92c-.66-2.14-.86-4.41-.61-6.83.25-2.42.81-4.9,1.68-7.43.48-1.35,1.15-2.69,2-4.05.83-1.35,1.72-2.17,2.65-2.45.5-.15,1.2.09,2.1.73.45.32.89.67,1.33,1.06.44.39.86.81,1.26,1.26.8.9,1.28,1.58,1.42,2.04s.18,1.11.12,1.94c-.06.83-.29,1.3-.69,1.43-.58.18-1.18-.07-1.81-.74-.32-.34-.56-.64-.74-.89-.18-.25-.37-.52-.58-.81-.67-.85-1.19-1.44-1.58-1.78-1,.52-1.72,1.31-2.17,2.38-.21.52-.4,1.13-.58,1.83-.18.7-.36,1.48-.53,2.34-.14.68-.24,1.42-.29,2.23-.05.81-.05,1.62-.01,2.45.04.82.12,1.63.25,2.43.12.8.29,1.53.49,2.19.29.93.97,1.72,2.04,2.35,1.08.6,2.1.75,3.05.46,2.06-.63,3.9-1.6,5.52-2.89,1.63-1.29,3.1-2.8,4.44-4.53,1.33-1.69,2.61-3.59,3.86-5.71.63-1.05,1.22-2.05,1.78-2.99.56-.94,1.1-1.84,1.61-2.7.86-1.39,1.67-2.2,2.44-2.44.22-.07.4.11.54.55Z"/>
      <path class="st0" d="M1055.48,1057.87c.07.24.03.72-.14,1.44-.46,1.46-1.03,2.96-1.69,4.48-.67,1.52-1.41,3.01-2.24,4.45-.83,1.44-1.73,2.83-2.7,4.16-.97,1.33-2,2.53-3.07,3.61-1.08,1.08-2.19,2-3.36,2.76-1.16.76-2.34,1.32-3.54,1.67-2.57.79-4.8.66-6.68-.4s-3.29-3.1-4.22-6.12c-.78-2.52-1.14-5.09-1.1-7.71.05-2.62.67-5.32,1.87-8.1.23-.49.52-.99.85-1.48.33-.49.7-.95,1.11-1.37.41-.42.85-.8,1.32-1.12.47-.32.97-.58,1.49-.78.13-.04.31-.08.55-.12.23-.04.49-.05.78-.05.28,0,.56.02.84.07s.52.14.72.27c.61.38,1.13.8,1.56,1.26.43.46.77,1.02,1,1.67.26.73.4,1.48.42,2.26.02.78-.09,1.61-.34,2.51-.24.89-.63,1.86-1.16,2.89s-1.19,2.18-2.01,3.43c-.51.79-1.08,1.67-1.71,2.63-.63.96-1.42,2.01-2.37,3.15.48,1.56,1.32,2.6,2.51,3.12,1.19.52,2.61.53,4.24.03.92-.28,1.8-.69,2.66-1.22.86-.53,1.68-1.13,2.45-1.8.78-.67,1.51-1.39,2.2-2.16s1.32-1.53,1.9-2.29c1.06-1.42,1.99-2.79,2.8-4.12s1.58-2.71,2.34-4.14l.9-1.7c.57-.93,1.04-1.46,1.39-1.56.19-.06.34.06.43.37ZM1035.58,1058.75c-.09-.24-.2-.46-.33-.68-.13-.22-.28-.39-.44-.54-.17-.14-.34-.24-.52-.3-.18-.06-.36-.06-.55,0-.84.31-1.53,1.09-2.08,2.34-.55,1.25-.95,2.8-1.2,4.66-.07.41-.1.85-.1,1.34,0,.48,0,.97.03,1.47s.06.98.11,1.46c.05.48.1.9.14,1.28.64-.88,1.24-1.7,1.78-2.45.54-.75,1.03-1.5,1.47-2.25.28-.47.55-.98.83-1.51.28-.53.51-1.08.7-1.63.19-.55.31-1.1.35-1.64s-.02-1.06-.19-1.55Z"/>
      <path class="st0" d="M1093.17,1045.6c.09.31.14.63.13.98,0,.35-.04.7-.1,1.06-.06.36-.13.72-.24,1.08-.1.36-.2.7-.29,1.03-.24.87-.56,1.77-.96,2.71s-.84,1.87-1.34,2.8c-.5.93-1.03,1.82-1.59,2.68-.56.86-1.13,1.64-1.71,2.35-.46.56-.9,1.1-1.32,1.59-.42.5-.86.95-1.31,1.35s-.95.77-1.49,1.09-1.15.59-1.84.8c-1.33.41-2.52.41-3.57,0-.52-.21-1.02-.53-1.5-.98-.48-.44-.94-.96-1.37-1.54-.44-.59-.85-1.22-1.25-1.91-.4-.69-.76-1.38-1.1-2.06-.42-.86-.81-1.62-1.16-2.3-.35-.68-.68-1.23-1-1.67-.32-.44-.64-.75-.96-.94s-.68-.23-1.06-.11c-.31.09-.58.22-.84.36-.25.15-.5.37-.74.65-.24.28-.48.66-.72,1.12s-.52,1.06-.81,1.78c-.3.72-.62,1.6-.97,2.62-.35,1.02-.76,2.24-1.22,3.65-.23.69-.51,1.45-.85,2.29-.34.84-.7,1.66-1.08,2.45-.38.79-.78,1.5-1.18,2.13-.4.63-.79,1.08-1.17,1.34-1.51.13-2.76-1.41-3.75-4.63-.26-.85-.56-2.18-.91-3.97-.15-.82-.29-1.68-.42-2.58-.14-.9-.24-1.81-.31-2.73-.07-.92-.11-1.82-.11-2.71,0-.89.06-1.73.19-2.53.06-.37.15-.68.27-.92.12-.24.26-.43.42-.58.16-.14.33-.26.53-.35.19-.09.39-.16.6-.23.26-.08.54.03.85.32.31.29.56.75.75,1.38.12.39.2.76.24,1.11.04.36.06.73.05,1.12,0,.39,0,.81,0,1.26,0,.45.01.96.05,1.53.04.46.08.98.12,1.55s.1,1.14.16,1.72c.06.58.14,1.14.23,1.68.09.54.2,1.03.33,1.44.09.29.23.57.42.85.43-.19.97-1.09,1.59-2.71.33-.82.69-1.72,1.08-2.71.39-.98.81-2.06,1.26-3.24.33-.88.67-1.7,1.02-2.48.35-.78.74-1.48,1.18-2.12s.94-1.19,1.51-1.65,1.25-.82,2.04-1.06c.84-.26,1.59-.29,2.25-.1s1.27.55,1.8,1.08c.53.53,1.03,1.21,1.49,2.04.46.83.91,1.75,1.34,2.78.37.87.74,1.73,1.1,2.59.36.86.78,1.6,1.25,2.21.47.62,1.02,1.07,1.63,1.36s1.37.29,2.27.01c.69-.21,1.36-.6,2.02-1.15.66-.55,1.31-1.25,1.97-2.07.66-.83,1.32-1.77,1.97-2.81s1.31-2.17,1.98-3.38c.26-.47.53-1.04.81-1.71.28-.67.55-1.33.82-1.96.27-.63.54-1.18.8-1.65.26-.47.5-.74.73-.81.1-.03.27-.03.51,0s.4.16.47.38Z"/>
      <path class="st0" d="M1113.13,1035.06c.18.59.16,1.1-.06,1.51-.23.41-.51.8-.85,1.17-.46.4-.98.8-1.57,1.2s-1.21.77-1.84,1.13c-.64.36-1.28.7-1.94,1.02-.66.32-1.29.61-1.9.86-.66.27-1.35.56-2.09.85-.74.3-1.45.59-2.13.88-.69.29-1.31.58-1.89.86s-1.02.55-1.35.81c.11,1.57.18,3.07.22,4.51.03,1.44.12,2.86.27,4.26.03.33.09.81.17,1.45.08.64.18,1.31.29,2.01.11.7.22,1.35.33,1.96.11.61.2,1.04.28,1.3.2.66.46,1.12.77,1.39.31.26.62.46.93.58.31.12.6.24.86.35.26.11.45.35.56.7.07.22.03.48-.12.75-.15.28-.36.54-.61.8-.26.25-.54.48-.86.67-.32.19-.61.33-.86.41-.47.14-.92.14-1.37,0-.45-.14-.87-.38-1.25-.71-.38-.33-.73-.74-1.04-1.22s-.55-1.01-.72-1.57c-.23-.74-.41-1.55-.54-2.43-.13-.88-.24-1.8-.32-2.74-.08-.94-.15-1.91-.22-2.9-.07-.99-.15-1.97-.24-2.95-.04-.41-.08-.83-.11-1.27-.04-.44-.08-.85-.12-1.23l-.1-.96c-.03-.26-.05-.41-.06-.46-.08-.26-.23-.43-.46-.51-.23-.08-.47-.08-.73,0-.19.06-.48.16-.85.32-.38.15-.77.32-1.18.5-.41.18-.8.34-1.18.5-.38.15-.65.25-.83.31-.58.18-1.08.29-1.5.34-.42.05-.79.02-1.1-.1-.31-.12-.58-.33-.8-.64-.23-.31-.42-.74-.59-1.28-.07-.22-.02-.43.15-.63.17-.19.39-.36.67-.51.28-.15.59-.28.92-.39.34-.11.63-.21.89-.29.21-.06.54-.19,1.01-.38.46-.19.95-.38,1.45-.59.51-.21.99-.41,1.45-.59.46-.19.8-.31,1.01-.38.1-.03.21-.07.33-.13.12-.06.24-.14.36-.26.11-.11.2-.27.26-.48.06-.2.08-.47.07-.8-.04-.53-.08-1.16-.13-1.87-.05-.72-.09-1.45-.14-2.2s-.09-1.48-.13-2.18c-.04-.7-.08-1.3-.11-1.8,0-.49-.02-1.01-.07-1.56-.05-.55-.12-1.09-.19-1.63-.07-.54-.12-1.07-.16-1.59-.04-.52-.03-1,.03-1.46.1-.94.54-1.54,1.33-1.78,1.19-.37,1.99.11,2.39,1.43.25.82.37,1.81.34,2.98-.02,2.68.03,4.87.15,6.57.12,1.7.26,2.82.43,3.37.18.59.57.8,1.17.62.72-.22,1.4-.44,2.03-.66.63-.22,1.26-.46,1.89-.71.63-.26,1.3-.54,2-.84.7-.3,1.48-.64,2.35-1.02.62-.28,1.2-.56,1.76-.86.55-.29,1.06-.57,1.53-.83.47-.26.88-.49,1.23-.71s.66-.38.9-.49c.17-.07.34-.15.5-.23.16-.08.3-.13.43-.15s.24.02.35.1c.1.08.19.24.27.48Z"/>
      <path class="st0" d="M1147.82,1014.1c.06.21.12.47.17.79.05.32.07.65.08.99,0,.34,0,.67-.04.99-.03.32-.1.58-.19.79-.24.59-.86,1.03-1.86,1.34-.34-1.09-.77-1.95-1.3-2.58-.25-.29-.6-.5-1.05-.61-.45-.12-.93-.18-1.45-.2-.52-.02-1.02.01-1.52.09-.5.07-.91.16-1.25.27-.77.24-1.51.48-2.22.74-.71.25-1.38.54-2.03.85-.65.32-1.3.67-1.94,1.07-.64.4-1.29.87-1.96,1.41-.5.42-1.02.89-1.54,1.41-.53.52-.99,1.07-1.39,1.66-.4.58-.72,1.18-.95,1.8-.23.62-.3,1.24-.22,1.86.11.46.4.93.89,1.42.48.48,1.07.92,1.76,1.3.69.39,1.45.7,2.27.94.82.24,1.63.35,2.44.33.14,0,.47.02.99.04.52.02,1.07.03,1.66.04.59.01,1.14.02,1.65.03.51.01.83.01.97,0,3.92-.19,6.96.09,9.11.82s3.52,2.03,4.08,3.88c.18.59.23,1.23.15,1.89-.08.67-.24,1.33-.48,2-.24.66-.52,1.29-.84,1.88-.33.59-.65,1.11-.95,1.53-.35.51-.77,1.06-1.24,1.64-.47.58-.99,1.15-1.55,1.73-.56.58-1.15,1.14-1.78,1.68s-1.27,1.05-1.93,1.52c-.65.46-1.34.92-2.07,1.37-.73.45-1.47.86-2.2,1.25-.74.38-1.45.73-2.13,1.04-.69.31-1.31.55-1.88.72-.42.13-.98.24-1.68.32-.7.09-1.41.12-2.12.1-.71-.02-1.34-.11-1.89-.26-.55-.16-.88-.4-.98-.74-.06-.21-.12-.47-.15-.8-.04-.32-.05-.64-.03-.97.02-.32.06-.6.14-.85.07-.24.2-.39.38-.45.32-.1.67-.15,1.05-.15.38,0,.82-.01,1.34-.03.51-.02,1.11-.07,1.8-.17.68-.1,1.49-.29,2.42-.58s1.93-.71,2.91-1.23c.97-.52,1.91-1.1,2.8-1.75.89-.64,1.73-1.32,2.5-2.04.77-.71,1.45-1.41,2.03-2.1.27-.33.56-.7.88-1.13.32-.42.6-.87.84-1.33s.43-.93.54-1.41c.12-.48.11-.93-.02-1.37-.19-.61-.82-1.06-1.89-1.34-1.05-.27-2.09-.42-3.11-.44-1.02-.02-1.92,0-2.69.04-.95.05-2.04.06-3.25.03-1.22-.03-2.56-.1-4.04-.21-2.44-.16-4.67-.81-6.67-1.96-2.01-1.14-3.36-2.85-4.06-5.11-.36-1.05-.35-2.17.03-3.36.38-1.19,1.02-2.38,1.92-3.57.9-1.19,1.99-2.34,3.28-3.45,1.29-1.11,2.66-2.09,4.12-2.95.3-.16.67-.36,1.1-.58.43-.22.89-.44,1.36-.64.47-.21.93-.4,1.38-.58.45-.18.83-.32,1.15-.42.39-.12.88-.24,1.48-.37.6-.12,1.23-.23,1.88-.33.65-.09,1.27-.15,1.87-.18s1.1,0,1.49.09c.95.18,1.76.51,2.41.97.65.47,1.07.99,1.25,1.57Z"/>
      <path class="st0" d="M1185.45,1012.77c.18.59.16,1.1-.06,1.51-.23.41-.51.8-.85,1.17-.46.4-.98.8-1.57,1.2s-1.21.77-1.84,1.13c-.64.36-1.28.7-1.94,1.02-.66.32-1.29.61-1.9.86-.66.27-1.35.56-2.09.85-.74.3-1.45.59-2.13.88-.69.29-1.31.58-1.89.86s-1.02.55-1.35.81c.11,1.57.18,3.07.22,4.51.03,1.44.12,2.86.27,4.26.03.33.09.81.17,1.45.08.64.18,1.31.29,2.01.11.7.22,1.35.33,1.96.11.61.2,1.04.28,1.3.2.66.46,1.12.77,1.39.31.26.62.46.93.58.31.12.6.24.86.35.26.11.45.35.56.7.07.22.03.48-.12.75-.15.28-.36.54-.61.8-.26.25-.54.48-.86.67-.32.19-.61.33-.86.41-.47.14-.92.14-1.37,0-.45-.14-.87-.38-1.25-.71-.38-.33-.73-.74-1.04-1.22s-.55-1.01-.72-1.57c-.23-.74-.41-1.55-.54-2.43-.13-.88-.24-1.8-.32-2.74-.08-.94-.15-1.91-.22-2.9-.07-.99-.15-1.97-.24-2.95-.04-.41-.08-.83-.11-1.27-.04-.44-.08-.85-.12-1.23l-.1-.96c-.03-.26-.05-.41-.06-.46-.08-.26-.23-.43-.46-.51-.23-.08-.47-.08-.73,0-.19.06-.48.16-.85.32-.38.15-.77.32-1.18.5-.41.18-.8.34-1.18.5-.38.15-.65.25-.83.31-.58.18-1.08.29-1.5.34-.42.05-.79.02-1.1-.1-.31-.12-.58-.33-.8-.64-.23-.31-.42-.74-.59-1.28-.07-.22-.02-.43.15-.63.17-.19.39-.36.67-.51.28-.15.59-.28.92-.39.34-.11.63-.21.89-.29.21-.06.54-.19,1.01-.38.46-.19.95-.38,1.45-.59.51-.21.99-.41,1.45-.59.46-.19.8-.31,1.01-.38.1-.03.21-.07.33-.13.12-.06.24-.14.36-.26.11-.11.2-.27.26-.48.06-.2.08-.47.07-.8-.04-.53-.08-1.16-.13-1.87-.05-.72-.09-1.45-.14-2.2s-.09-1.48-.13-2.18c-.04-.7-.08-1.3-.11-1.8,0-.49-.02-1.01-.07-1.56-.05-.55-.12-1.09-.19-1.63-.07-.54-.12-1.07-.16-1.59-.04-.52-.03-1,.03-1.46.1-.94.54-1.54,1.33-1.78,1.19-.37,1.99.11,2.39,1.43.25.82.37,1.81.34,2.98-.02,2.68.03,4.87.15,6.57.12,1.7.26,2.82.43,3.37.18.59.57.8,1.17.62.72-.22,1.4-.44,2.03-.66.63-.22,1.26-.46,1.89-.71.63-.26,1.3-.54,2-.84.7-.3,1.48-.64,2.35-1.02.62-.28,1.2-.56,1.76-.86.55-.29,1.06-.57,1.53-.83.47-.26.88-.49,1.23-.71s.66-.38.9-.49c.17-.07.34-.15.5-.23.16-.08.3-.13.43-.15s.24.02.35.1c.1.08.19.24.27.48Z"/>
      <path class="st0" d="M1212.65,1005.53c.08.27.11.57.08.89-.03.32-.11.64-.22.96s-.25.64-.41.94-.34.57-.54.79c-.45.54-1.15,1.12-2.1,1.72-.95.6-2.19,1.14-3.72,1.61-1.22.38-2.5.6-3.83.67-1.33.07-2.68-.08-4.05-.46.54.45.95.91,1.21,1.4.26.48.5,1.08.72,1.78.39,1.27.49,2.72.28,4.35-.18,1.64-.58,3.23-1.19,4.78-.62,1.55-1.35,2.9-2.21,4.06-.48.66-1.05,1.28-1.69,1.85-.64.58-1.34,1.1-2.09,1.57s-1.56.89-2.41,1.27c-.85.38-1.73.7-2.63.98-.63.19-1.3.18-2.02-.04-.72-.22-1.4-.55-2.04-.98-.64-.43-1.21-.94-1.69-1.51-.48-.57-.81-1.12-.97-1.65-.4-1.3-.61-2.6-.64-3.91-.02-1.3.09-2.6.33-3.9.24-1.3.58-2.6,1.03-3.91.44-1.31.93-2.62,1.47-3.95.3-.74.67-1.5,1.11-2.26.44-.76.93-1.47,1.47-2.13.54-.66,1.11-1.23,1.71-1.73.6-.49,1.22-.84,1.85-1.03.51-.16.98-.22,1.39-.19.41.03.83.13,1.24.29.41.16.85.39,1.32.69.47.3,1.01.62,1.61.98.19.1.65.19,1.39.27.74.08,1.59.12,2.57.11s1.98-.06,3.02-.17c1.04-.1,1.96-.28,2.77-.52s1.53-.5,2.19-.77c.66-.26,1.28-.56,1.88-.88.6-.32,1.17-.7,1.73-1.11.56-.42,1.15-.9,1.77-1.44.14.22.24.42.29.6ZM1196.43,1016.86c-.12-.45-.31-.96-.57-1.5-.26-.55-.56-1.04-.92-1.49-.36-.44-.75-.78-1.18-1-.43-.22-.87-.22-1.34-.01-.83-.06-1.53-.18-2.11-.35-.58-.17-1-.22-1.26-.14-.19.06-.38.18-.57.37-.19.19-.37.43-.55.71-.18.28-.35.6-.51.96-.16.36-.32.73-.46,1.11-.29.78-.56,1.48-.81,2.12-.25.64-.48,1.27-.69,1.89s-.39,1.26-.56,1.91-.31,1.39-.44,2.18c-.06.33-.08.72-.07,1.16.01.44.04.88.09,1.33.05.45.12.9.21,1.33.09.44.19.83.29,1.16.06.21.21.44.45.69.24.25.51.48.83.69.32.21.66.36,1.01.47.36.1.68.11.97.02.82-.25,1.51-.5,2.06-.75s1.05-.54,1.48-.88c.43-.34.85-.74,1.25-1.22.4-.47.85-1.07,1.35-1.79.25-.34.48-.72.69-1.14.21-.42.42-.85.61-1.31.19-.46.37-.91.53-1.38.16-.46.3-.91.43-1.36.09-.29.13-.63.13-1.02,0-.39-.02-.77-.06-1.14-.04-.37-.1-.71-.16-1.01s-.12-.51-.16-.64Z"/>
      <path class="st0" d="M1230.89,1000.73c.03.1.06.24.11.43.04.19.06.39.05.59,0,.2-.03.39-.08.56-.04.17-.14.28-.28.32-.1.03-.26.08-.49.14-.23.06-.47.12-.72.18-.25.06-.49.12-.72.18-.23.06-.39.11-.49.14-3.01,1.14-5.22,3.05-6.63,5.74-1.39,2.63-2.3,5.85-2.73,9.66-.06.78-.11,1.57-.15,2.39-.04.82-.05,1.68-.04,2.57,0,.49.04.92.09,1.28.05.36.07.76.06,1.18,0,.14-.09.31-.29.5s-.44.39-.71.57c-.27.19-.53.36-.78.5-.25.15-.43.24-.52.27-1.09.41-2.07-.55-2.94-2.87-.25-.63-.45-1.2-.6-1.73-.15-.52-.29-1.04-.41-1.54-.12-.5-.23-1.03-.34-1.58-.11-.56-.24-1.18-.38-1.88-.18-.86-.38-1.85-.6-2.98-.22-1.13-.43-2.27-.63-3.42s-.37-2.26-.52-3.31c-.15-1.05-.24-1.94-.26-2.65-.06-.81.02-1.45.22-1.91.2-.47.6-.81,1.2-1.03.16-.05.35-.06.56-.03.21.03.42.1.61.19.2.1.37.21.53.34.15.13.26.25.31.38.14.4.27.84.38,1.32.11.48.21.99.28,1.52.08.53.14,1.07.18,1.62.05.55.08,1.07.12,1.57.06.99.13,1.82.21,2.51s.17,1.35.28,1.99c.11.64.23,1.32.36,2.04.13.72.3,1.62.49,2.69.08-.69.16-1.29.23-1.79.07-.5.13-.93.19-1.31.06-.38.12-.72.17-1.02.06-.3.12-.61.2-.95.07-.33.16-.69.24-1.09s.2-.88.34-1.45c.55-2.21,1.29-4.11,2.21-5.68.92-1.58,1.9-2.81,2.93-3.69,1.15-1.06,2.15-1.75,3.01-2.06.41-.14.92-.27,1.52-.39.6-.11,1.19-.16,1.77-.15.58.01,1.11.1,1.57.27.46.17.76.45.88.85Z"/>
      <path class="st0" d="M1256.46,990.58c.08.27.17.59.27.96.1.37.2.79.31,1.26.11.46.21.94.32,1.43.11.49.22,1.01.33,1.54.11.53.21,1,.3,1.4.09.4.17.74.24,1.02.57,2.24,1.03,4.57,1.39,7,.36,2.43.6,4.78.72,7.05.22,3.75-.1,7.11-.96,10.09-.87,3.01-2.75,4.96-5.64,5.86-1.9.58-3.93.8-6.09.64-2.14-.15-4.08-.69-5.8-1.62-1.08-.69-1.67-1.21-1.78-1.56-.12-.4-.14-.9-.06-1.49.1-.58.32-.92.64-1.01.18-.05.36,0,.55.15.78.6,1.49,1.05,2.13,1.35,2.72,1.24,5.79,1.33,9.22.27,1.35-.42,2.33-1.42,2.95-3.02.32-.79.57-1.6.74-2.44.17-.84.29-1.71.35-2.59.06-.88.09-1.77.08-2.66s-.05-1.8-.12-2.71c-.08-.84-.15-1.5-.21-2-.06-.49-.1-.82-.13-.99-.13-.7-.27-1.37-.43-2-.16-.64-.29-1.27-.38-1.92-.39.35-1.15,1.16-2.28,2.45-.67.75-1.27,1.43-1.83,2.04-.55.61-1.04,1.15-1.48,1.62-.87.95-1.88,1.92-3.04,2.89-1.18.98-2.2,1.6-3.07,1.87-1.51.47-2.86.22-4.05-.73s-2.03-2.22-2.51-3.79c-.35-1.12-.61-2.42-.8-3.87-.08-.73-.15-1.42-.2-2.06-.05-.64-.08-1.26-.08-1.84,0-.58,0-1.27-.02-2.08-.01-.81-.01-1.74,0-2.8,0-.58.03-1.1.1-1.55.07-.45.19-.85.36-1.19.17-.34.4-.63.7-.86.3-.23.69-.42,1.17-.57s.92,0,1.35.45c.41.42.7.89.86,1.42.1.32.12.63.05.93-.04.15-.1.37-.17.66s-.16.64-.28,1.06c-.12.42-.2.77-.26,1.04-.06.27-.08.48-.07.62-.01.43-.02.8-.03,1.12s-.02.59-.04.8c0,.21,0,.46,0,.75,0,.29,0,.63,0,1.02,0,.76.05,1.43.14,2.03.09.6.23,1.22.43,1.86s.57,1.38,1.11,2.22c.57.86,1.08,1.22,1.55,1.08,1.41-.44,3-1.37,4.76-2.81,1.75-1.45,3.23-3.1,4.45-4.93,1.21-1.83,1.78-3.48,1.7-4.93,0-.21-.04-.52-.12-.91-.09-.4-.19-.83-.31-1.32-.12-.48-.25-.98-.4-1.5-.14-.52-.27-1.02-.4-1.5-.12-.48-.23-.92-.31-1.3-.08-.39-.12-.69-.12-.9-.04-1.61.41-2.55,1.34-2.84.88-.27,1.5-.22,1.85.17.37.41.72,1.14,1.04,2.19Z"/>
    </g>
    <path class="st0" d="M1306.08,972.67c-1.42-2.41-4.13-5.3-7.17-5.34-3.07-.04-5.87,2.95-7.41,5.31-1.81,2.77-2.25,6.11-2.81,9.3-.32,1.83-.6,3.67-.84,5.51-1.6-1.58-3.2-3.16-4.85-4.67-2.16-1.98-4.58-3.83-7.47-4.54-3.06-.75-5.49.62-7.43,2.94-1.9,2.27-2.3,4.8-1.82,7.67,2.19,13.18,16.21,18.31,26.38,24.74-.03.06-.07.12-.1.18-.53.95-.02,1.09.77.71.13-.06.25-.13.38-.21.42.27.83.55,1.23.83,1.02.72,4.48-3.52,3.74-4.03-.57-.4-1.15-.79-1.73-1.17,3.46-6.11,7.25-12.23,9.68-18.8,2.18-5.93,2.78-12.78-.54-18.42ZM1304.15,981.52c.13.62.22,1.24.28,1.87-2.22,4.2-4.26,8.48-6.13,12.84.31-3.18.86-6.34,1.35-9.51.41-2.61.79-5.24.93-7.88.06-1.15.34-3.06-.03-4.51.04.04.08.09.12.12,1.81,1.97,2.93,4.46,3.47,7.06ZM1292.08,981.41c.45-2.97.77-6.22,1.86-9.05.69-1.79,2.86-.9,4.6.3-1.2.54-2.68,2.79-2.94,3.46-1.79,4.57-3.25,9.24-4.53,13.97.25-2.91.58-5.8,1.01-8.69ZM1273.98,993.59c.06-.12.11-.25.16-.37.66-1.76,1.44-3.44,2.33-5.07.79,2.3.94,4.79,1.23,7.2.1.85.21,1.7.31,2.55-1.48-1.3-2.84-2.72-4.03-4.31ZM1283.46,992.85l-1.34,3.18c-.2-1.7-.41-3.4-.61-5.1-.1-.84-.2-1.68-.31-2.51,1.08,1.05,2.13,2.15,3.16,3.23-.47.57-.83,1.06-.89,1.21ZM1282.61,1000.88c.55-1.31,1.11-2.63,1.66-3.94.49,2.14.99,4.28,1.48,6.42-1.13-.67-2.24-1.36-3.32-2.09.06-.13.13-.25.18-.39ZM1288.39,994.26c.84-.65,1.83-1.94,2.31-2.81-.54,2.05-1.05,4.11-1.54,6.18-.26-1.12-.52-2.24-.78-3.36ZM1269.99,983.51c-.02-.44.04-.9.08-1.34.08,0,.15-.01.23-.02.64.26,1.62.15,2.33.38.62.2,1.23.47,1.81.76.78.4,1.53.86,2.27,1.36-.23.26-.39.46-.43.51-1.43,1.97-2.68,4.04-3.78,6.2-.05-.08-.09-.15-.14-.23-1.34-2.33-2.22-4.92-2.36-7.62ZM1301.35,997.58c-1.83,3.84-3.93,7.58-6.03,11.29-1.73-1.06-3.52-2.06-5.31-3.07.37-.46.63-.85.67-1.04,1.8-8.23,3.62-16.48,6.19-24.5-.03,1.1-.18,2.19-.23,2.92-.18,2.64-.58,5.27-1,7.88-.83,5.23-1.74,10.45-1.43,15.76.05.82,1.6-.46,1.73-.57.84-.71,1.74-1.66,2.12-2.73,1.84-5.16,3.93-10.22,6.26-15.17-.45,3.19-1.56,6.3-2.96,9.23Z"/>
  </g>
</svg>
