<?xml version="1.0" encoding="UTF-8"?>
<svg id="Layer_1" data-name="Layer 1" xmlns="http://www.w3.org/2000/svg" viewBox="0 0 1080 1080">
  <defs>
    <style>
      .cls-1 {
        fill: #fff;
      }
    </style>
  </defs>
  <path class="cls-1" d="M1034.66,562.2c0,56.12-45.5,101.6-101.6,101.6-13.19,0-25.79-2.51-37.36-7.09-11.73,61.59-65.86,108.13-130.86,108.13-23.55,0-45.66-6.12-64.86-16.85-29.67,61.24-92.39,103.45-164.97,103.45-3.88,0-7.73-.12-11.53-.37,78.19-271.51,45.09-523.08,26.24-622.48,93.63,1.81,174.16,57.01,212.45,136.43,7.71-1.4,15.66-2.12,23.78-2.12,61.86,0,113.89,42.17,128.87,99.34,5.92-1.07,12.02-1.64,18.25-1.64,56.1,0,101.6,45.5,101.6,101.6Z"/>
  <path class="cls-1" d="M523.48,851.07c-52.85-3.27-99.61-28.93-130.92-67.63-21.19,14.2-46.67,22.48-74.08,22.48-61.22,0-112.8-41.31-128.4-97.59-7.34,1.38-14.88,2.1-22.6,2.1-67.44,0-122.13-54.68-122.13-122.13s54.68-122.15,122.13-122.15c5.06,0,10.03.33,14.9.92,22.19-42.76,66.85-71.99,118.35-71.99,4.99,0,9.93.29,14.8.82,31.09-97.08,122.07-167.36,229.48-167.36,1.58,0,3.14.02,4.73.04,18.84,99.4,51.95,350.97-26.24,622.48Z"/>
</svg>